<?xml version="1.0" encoding="iso-8859-1"?>
<!-- Generator: Adobe Illustrator 19.0.0, SVG Export Plug-In . SVG Version: 6.00 Build 0)  -->
<svg version="1.1" id="Capa_1" xmlns="http://www.w3.org/2000/svg" xmlns:xlink="http://www.w3.org/1999/xlink" x="0px" y="0px"
	 viewBox="0 0 511 511" style="enable-background:new 0 0 511 511;" xml:space="preserve"  fill="#ffffff" >
<g>
	<path d="M378.75,191.5v-104c0-48.248-39.252-87.5-87.5-87.5h-16c-45.786,0-83.466,35.351-87.192,80.191
		C116.674,83.943,59.75,143.198,59.75,215.5v160c0,74.715,60.785,135.5,135.5,135.5s135.5-60.785,135.5-135.5v-160
		c0-72.074-56.567-131.178-127.635-135.266C206.771,43.657,237.726,15,275.25,15h16c39.977,0,72.5,32.523,72.5,72.5v104
		c0,48.248,39.252,87.5,87.5,87.5v-15C411.273,264,378.75,231.477,378.75,191.5z M186.75,216v-49h17v49H186.75z M187.75,95.24V152
		h-16v79h16v41h-113v-56.5C74.75,151.576,124.787,99.127,187.75,95.24z M195.25,496c-66.444,0-120.5-54.056-120.5-120.5V287h241
		v88.5C315.75,441.944,261.694,496,195.25,496z M315.75,215.5V272h-113v-41h16v-79h-16V95.24
		C265.713,99.127,315.75,151.576,315.75,215.5z"/>
	<path d="M252.495,129.26c-7.088-4.713-14.738-8.538-22.739-11.366l-5,14.143c6.836,2.417,13.374,5.685,19.432,9.714L252.495,129.26
		z"/>
	<path d="M298.75,215.5c0-25.505-9.358-50.008-26.351-68.996l-11.178,10.003c14.528,16.234,22.529,37.185,22.529,58.993H298.75z"/>
</g>
<g>
</g>
<g>
</g>
<g>
</g>
<g>
</g>
<g>
</g>
<g>
</g>
<g>
</g>
<g>
</g>
<g>
</g>
<g>
</g>
<g>
</g>
<g>
</g>
<g>
</g>
<g>
</g>
<g>
</g>
</svg>
