<?xml version="1.0" encoding="iso-8859-1"?>
<!-- Generator: Adobe Illustrator 19.0.0, SVG Export Plug-In . SVG Version: 6.00 Build 0)  -->
<svg version="1.1" id="Capa_1" xmlns="http://www.w3.org/2000/svg" xmlns:xlink="http://www.w3.org/1999/xlink" x="0px" y="0px"
	 viewBox="0 0 512 512" style="enable-background:new 0 0 512 512;" xml:space="preserve" fill="#ffffff" >
<g>
	<g>
		<path d="M439.608,122.255l3.426-9.381c1.635-4.477,1.302-9.466-0.914-13.686c-2.197-4.183-6.07-7.26-10.625-8.441
			c-10.778-2.795-21.93-4.213-33.146-4.213c-12.549,0-24.974,1.768-36.931,5.255c-4.46,1.301-8.222,4.428-10.323,8.578
			c-2.106,4.162-2.395,9.061-0.795,13.44l2.504,6.855c-16.45,6.195-31.159,15.968-43.175,28.368h-25.928v-9.816
			c0-7.896-6.424-14.32-14.32-14.32h-5.326V103.85c0-9.799,7.972-17.771,17.771-17.771h30.041c18.101,0,32.828-14.727,32.828-32.828
			V23.34c0-4.158-3.37-7.529-7.529-7.529c-4.158,0-7.529,3.371-7.529,7.529v29.911c0,9.799-7.972,17.771-17.771,17.771h-30.041
			c-18.101,0-32.828,14.727-32.828,32.828v21.044h-7.526c-7.896,0-14.32,6.424-14.32,14.32v9.816H202.37
			c-11.993-12.377-26.67-22.137-43.083-28.333l2.857-7.822c1.635-4.477,1.303-9.465-0.913-13.686
			c-2.196-4.184-6.069-7.261-10.625-8.442c-10.778-2.795-21.93-4.213-33.146-4.213c-12.549,0-24.974,1.768-36.931,5.255
			c-4.459,1.3-8.222,4.427-10.323,8.578c-2.106,4.162-2.395,9.061-0.795,13.44l3.072,8.411C29.958,140.008,0,182.043,0,230.948
			c0,31.239,12.475,60.803,33.816,82.562v147.526c0,19.383,15.769,35.153,35.153,35.153h56.137c17.042,0,31.592-12.174,34.6-28.947
			l25.004-139.394c6.37-4.412,12.285-9.433,17.661-14.981h107.258c5.464,5.639,11.484,10.734,17.972,15.197l24.693,139.178
			c3.008,16.773,17.558,28.947,34.6,28.947h56.137c19.383,0,35.152-15.77,35.152-35.153V388.23c0-4.158-3.37-7.529-7.529-7.529
			s-7.529,3.371-7.529,7.529v72.806c0,11.081-9.015,20.096-20.095,20.096h-56.137c-9.741,0-18.06-6.959-19.777-16.534
			L344.62,337.793c15.078,7.025,31.876,10.957,49.578,10.957c25.719,0,49.534-8.291,68.928-22.332v29.099
			c0,4.159,3.371,7.529,7.529,7.529c4.158,0,7.529-3.371,7.529-7.529v-42.053C499.085,292.195,512,263.053,512,230.948
			C512,182.078,482.085,140.067,439.608,122.255z M364.532,107.163c0.163-0.321,0.485-0.74,1.102-0.92
			c10.587-3.087,21.594-4.653,32.716-4.653c9.941,0,19.821,1.255,29.366,3.731c0.592,0.153,0.911,0.556,1.073,0.866
			c0.145,0.276,0.351,0.841,0.102,1.521l-3.519,9.633c-9.934-2.729-20.385-4.195-31.173-4.195c-9.277,0-18.305,1.082-26.969,3.119
			l-2.785-7.626C364.204,107.981,364.396,107.432,364.532,107.163z M268.644,139.951v8.718h-26.435v-8.718H268.644z M83.643,107.163
			c0.162-0.32,0.484-0.74,1.102-0.92c10.587-3.087,21.594-4.653,32.715-4.653c9.941,0,19.821,1.255,29.366,3.731
			c0.592,0.153,0.911,0.555,1.073,0.866c0.144,0.276,0.35,0.84,0.101,1.521l-3.134,8.581c-8.693-2.052-17.754-3.142-27.065-3.142
			c-10.754,0-21.172,1.457-31.077,4.169l-3.168-8.677C83.315,107.981,83.507,107.432,83.643,107.163z M117.801,333.693
			c-5.874,0-11.764-0.499-17.504-1.484c-4.095-0.702-7.99,2.05-8.692,6.148c-0.703,4.098,2.049,7.99,6.147,8.693
			c6.579,1.128,13.324,1.7,20.049,1.7c17.808,0,34.702-3.979,49.85-11.084l-22.766,126.918
			c-1.719,9.588-10.038,16.547-19.779,16.547H68.969c-11.08,0-20.095-9.015-20.095-20.096V326.472
			c3.494,2.527,7.136,4.885,10.936,7.038c3.617,2.048,8.212,0.779,10.262-2.839s0.778-8.212-2.839-10.262
			c-32.183-18.234-52.175-52.513-52.175-89.461c0-56.653,46.091-102.744,102.744-102.744c29.321,0,55.81,12.348,74.548,32.114
			c0.552,0.955,1.306,1.778,2.206,2.408c16.158,18.158,25.991,42.061,25.991,68.222
			C220.547,287.602,174.455,333.693,117.801,333.693z M214.734,297.809c13.152-19.008,20.87-42.049,20.87-66.861
			c0-24.813-7.718-47.853-20.87-66.861h82.532c-13.152,19.008-20.87,42.048-20.87,66.861s7.718,47.853,20.87,66.861H214.734z
			 M465.816,304.541c-0.268,0.225-0.516,0.473-0.751,0.733c-18.449,17.599-43.418,28.419-70.867,28.419
			c-56.653,0-102.745-46.091-102.745-102.745c0-56.653,46.092-102.744,102.745-102.744c56.653,0,102.744,46.091,102.744,102.744
			C496.942,259.776,485.003,285.864,465.816,304.541z"/>
	</g>
</g>
<g>
	<g>
		<path d="M169.074,203.628h-23.952v-23.951c0-10.444-8.496-18.94-18.94-18.94h-16.76c-10.444,0-18.94,8.497-18.94,18.94v23.951
			H66.53c-10.444,0-18.94,8.497-18.94,18.94v16.761c0,10.444,8.496,18.94,18.94,18.94h23.952v23.951
			c0,10.444,8.496,18.94,18.94,18.94h16.76c10.444,0,18.94-8.497,18.94-18.94v-23.951h23.952c10.444,0,18.94-8.497,18.94-18.941
			v-16.76C188.014,212.125,179.518,203.628,169.074,203.628z M172.957,239.328c0,2.141-1.742,3.883-3.883,3.883h-24.289
			c-8.117,0-14.72,6.603-14.72,14.72v24.288c0,2.141-1.742,3.883-3.883,3.883h-16.76c-2.141,0-3.883-1.742-3.883-3.883v-24.288
			c0-8.117-6.604-14.72-14.721-14.72H66.53c-2.141,0-3.883-1.742-3.883-3.883v-16.761c0-2.141,1.742-3.883,3.883-3.883h24.288
			c8.117,0,14.721-6.604,14.721-14.721v-24.288c0-2.141,1.742-3.883,3.883-3.883h16.76c2.141,0,3.883,1.742,3.883,3.883v24.288
			c0,8.117,6.603,14.721,14.72,14.721h24.289c2.141,0,3.883,1.742,3.883,3.883V239.328z"/>
	</g>
</g>
<g>
	<g>
		<path d="M397.5,161.433c-14.871,0-26.969,12.099-26.969,26.97c0,14.87,12.098,26.969,26.969,26.969
			c14.871,0,26.97-12.098,26.97-26.969C424.47,173.532,412.371,161.433,397.5,161.433z M397.5,200.315
			c-6.568,0-11.912-5.344-11.912-11.912c0.001-6.569,5.344-11.913,11.912-11.913c6.569,0,11.913,5.344,11.913,11.913
			C409.413,194.971,404.069,200.315,397.5,200.315z"/>
	</g>
</g>
<g>
	<g>
		<path d="M397.5,248.424c-14.871,0-26.969,12.099-26.969,26.97s12.098,26.969,26.969,26.969c14.871,0,26.97-12.098,26.97-26.969
			C424.47,260.523,412.371,248.424,397.5,248.424z M397.5,287.306c-6.568,0-11.912-5.344-11.912-11.912s5.344-11.913,11.912-11.913
			c6.569,0,11.913,5.344,11.913,11.913C409.413,281.963,404.069,287.306,397.5,287.306z"/>
	</g>
</g>
<g>
	<g>
		<path d="M440.392,203.979c-14.871,0-26.97,12.098-26.97,26.969c0,14.871,12.099,26.97,26.97,26.97
			c14.871,0,26.97-12.099,26.97-26.97C467.362,216.077,455.263,203.979,440.392,203.979z M440.392,242.861
			c-6.569,0-11.913-5.344-11.913-11.913c0-6.568,5.344-11.912,11.913-11.912c6.569,0,11.913,5.344,11.913,11.912
			C452.305,237.517,446.961,242.861,440.392,242.861z"/>
	</g>
</g>
<g>
	<g>
		<path d="M353.907,203.979c-14.871,0-26.97,12.098-26.97,26.969c0,14.871,12.099,26.97,26.97,26.97
			c14.871,0,26.97-12.099,26.97-26.97C380.877,216.077,368.778,203.979,353.907,203.979z M353.907,242.861
			c-6.569,0-11.913-5.344-11.913-11.913c0-6.568,5.344-11.912,11.913-11.912c6.569,0,11.913,5.344,11.913,11.912
			C365.82,237.517,360.476,242.861,353.907,242.861z"/>
	</g>
</g>
<g>
</g>
<g>
</g>
<g>
</g>
<g>
</g>
<g>
</g>
<g>
</g>
<g>
</g>
<g>
</g>
<g>
</g>
<g>
</g>
<g>
</g>
<g>
</g>
<g>
</g>
<g>
</g>
<g>
</g>
</svg>
