<?xml version="1.0" encoding="iso-8859-1"?>
<!-- Generator: Adobe Illustrator 19.0.0, SVG Export Plug-In . SVG Version: 6.00 Build 0)  -->
<svg version="1.1" id="Layer_1" xmlns="http://www.w3.org/2000/svg" xmlns:xlink="http://www.w3.org/1999/xlink" x="0px" y="0px"
	 viewBox="0 0 512 512" style="enable-background:new 0 0 512 512;" xml:space="preserve" fill="#ffffff" >
<g>
	<g>
		<path d="M435.125,65.859h-4.205V24.301C430.92,10.901,420.018,0,406.619,0h-59.613c-4.143,0-7.501,3.357-7.501,7.5
			c0,4.143,3.357,7.501,7.501,7.501h37.753V130.2H68.04V15.001h250.963c4.143,0,7.5-3.357,7.5-7.501c0-4.143-3.357-7.5-7.5-7.5
			H45.421C32.022,0,21.12,10.901,21.12,24.301v96.599c0,13.4,10.901,24.303,24.301,24.303c8.113,0,317.698,0,361.199,0
			c13.399,0,24.301-10.902,24.301-24.303V80.861h4.205c22.471,0,40.753,18.281,40.753,40.753v32.172
			c0,22.473-18.281,40.755-40.753,40.755c-17.048,0-144.744,0-160.849,0c-30.744,0-55.756,25.012-55.756,55.754v11.505
			c-15.499,0-25.201,11.788-25.201,24.301v21.549c-6.729,4.326-11.2,11.873-11.2,20.449v159.601
			c0,13.399,10.901,24.301,24.301,24.301h42.001c13.399,0,24.301-10.901,24.301-24.301V376.758c0-4.143-3.357-7.5-7.501-7.5
			c-4.143,0-7.5,3.357-7.5,7.5v110.942c0,5.127-4.172,9.3-9.3,9.3h-42.001c-5.127,0-9.3-4.172-9.3-9.3V328.098
			c0-5.166,4.24-9.299,9.3-9.299c45.137,0,42.913-0.215,45.158,0.564c3.575,1.297,6.142,4.717,6.142,8.735v22.658
			c0,4.143,3.357,7.501,7.5,7.501c4.143,0,7.501-3.357,7.501-7.501v-22.658c0-8.576-4.469-16.122-11.198-20.448V286.1
			c0-13.399-10.902-24.301-24.303-24.301h-3.699v-11.505c0-22.472,18.282-40.753,40.755-40.753c13.368,0,138.23,0,160.849,0
			c30.742,0,55.754-25.012,55.754-55.756v-32.172C490.879,90.871,465.867,65.859,435.125,65.859z M53.039,130.2h-7.619
			c-5.127,0-9.3-4.171-9.3-9.301V24.301c0-5.127,4.172-9.3,9.3-9.3h7.619V130.2z M415.919,120.899c0,5.129-4.172,9.302-9.3,9.302
			h-6.859v-115.2h6.859c5.127,0,9.3,4.172,9.3,9.3V120.899z M237.222,276.8c5.128,0,9.301,4.172,9.301,9.3v17.699h-38.202V286.1
			c0-5.127,4.172-9.3,9.3-9.3H237.222z"/>
	</g>
</g>
<g>
</g>
<g>
</g>
<g>
</g>
<g>
</g>
<g>
</g>
<g>
</g>
<g>
</g>
<g>
</g>
<g>
</g>
<g>
</g>
<g>
</g>
<g>
</g>
<g>
</g>
<g>
</g>
<g>
</g>
</svg>
